<svg width="1080" height="700" viewBox="0 0 1080 700" fill="none" xmlns="http://www.w3.org/2000/svg">
<path d="M166.08 480.62H173.63V518.37C173.63 523.76 171.7 528.37 167.85 532.23C164 536.09 159.38 538.01 154 538.01V531.22C157.52 531.22 160.42 529.99 162.68 527.52C164.95 525.05 166.08 522.01 166.08 518.38V480.63V480.62ZM166.08 462.5H173.63V469.97H166.08V462.5Z" fill="#02538E"/>
<path d="M187.22 480.54H194.77V499.27C194.77 503.7 195.75 507.01 197.72 509.2C199.68 511.39 202.02 512.48 204.74 512.48C208.41 512.48 211.21 511.36 213.12 509.12C215.03 506.88 215.99 503.6 215.99 499.27V480.54H222.78V501.46C222.78 506.44 221.16 510.62 217.91 513.99C214.66 517.36 210.27 519.05 204.74 519.05C203.88 519.05 203.08 519.02 202.32 518.97C201.57 518.92 200.57 518.76 199.34 518.48C198.11 518.2 196.97 517.84 195.94 517.39C194.91 516.94 193.84 516.27 192.73 515.39C191.62 514.51 190.68 513.47 189.9 512.26C189.12 511.05 188.48 509.52 187.98 507.65C187.48 505.79 187.23 503.72 187.23 501.46V480.54H187.22Z" fill="#02538E"/>
<path d="M269.67 518.22H262.12V499.5C262.12 495.27 261.2 492.01 259.36 489.72C257.52 487.43 254.89 486.28 251.47 486.28C248.05 486.28 245.62 487.41 243.88 489.68C242.14 491.94 241.28 495.24 241.28 499.57V518.29L234.11 518.21V497.37C234.11 492.39 235.73 488.2 238.98 484.8C242.23 481.4 246.64 479.7 252.23 479.7C253.03 479.7 253.82 479.73 254.57 479.78C255.32 479.83 256.32 479.99 257.55 480.27C258.78 480.55 259.92 480.91 260.95 481.36C261.98 481.81 263.06 482.48 264.2 483.36C265.33 484.24 266.28 485.28 267.03 486.49C267.78 487.7 268.41 489.23 268.92 491.1C269.42 492.96 269.67 495.05 269.67 497.37V518.21V518.22Z" fill="#02538E"/>
<path d="M283.26 462.42H290.81V469.89H283.26V462.42ZM283.26 480.54H290.81V518.29H283.26V480.54Z" fill="#02538E"/>
<path d="M304.4 480.54H311.95V499.27C311.95 503.7 312.93 507.01 314.9 509.2C316.86 511.39 319.2 512.48 321.92 512.48C325.59 512.48 328.39 511.36 330.3 509.12C332.21 506.88 333.17 503.6 333.17 499.27V480.54H339.96V501.46C339.96 506.44 338.34 510.62 335.09 513.99C331.84 517.36 327.45 519.05 321.92 519.05C321.06 519.05 320.26 519.02 319.5 518.97C318.75 518.92 317.75 518.76 316.52 518.48C315.29 518.2 314.15 517.84 313.12 517.39C312.09 516.94 311.02 516.27 309.91 515.39C308.8 514.51 307.86 513.47 307.08 512.26C306.3 511.05 305.66 509.52 305.16 507.65C304.66 505.79 304.41 503.72 304.41 501.46V480.54H304.4Z" fill="#02538E"/>
<path d="M370.31 480.54V487.18H362.61C358.83 487.18 356.95 488.39 356.95 490.8V491.25C357.05 492 357.63 492.8 358.69 493.63C359.75 494.46 360.99 495.28 362.43 496.08C363.86 496.89 365.31 497.79 366.77 498.8C368.23 499.81 369.45 501.08 370.43 502.61C371.41 504.15 371.9 505.85 371.9 507.71C371.9 508.16 371.87 508.67 371.82 509.22C370.96 515.26 366.74 518.28 359.14 518.28H350.68V511.56H359.59C361.2 511.56 362.52 511.22 363.55 510.54C364.58 509.86 365.1 508.99 365.1 507.94C365.1 507.74 365.07 507.51 365.02 507.26C364.82 506.4 364.16 505.57 363.06 504.77C361.95 503.97 360.69 503.18 359.28 502.43C357.87 501.68 356.47 500.83 355.09 499.9C353.71 498.97 352.53 497.77 351.58 496.31C350.62 494.85 350.15 493.19 350.15 491.33C350.15 487.96 351.37 485.32 353.81 483.4C356.25 481.49 359.18 480.53 362.61 480.53H370.31V480.54Z" fill="#02538E"/>
<path d="M400.97 479.79C403.49 479.79 405.89 480.18 408.18 480.96C410.47 481.74 412.56 482.88 414.45 484.4C416.34 485.91 417.83 487.96 418.94 490.55C420.05 493.14 420.6 496.1 420.6 499.42V518.3H413.05V513.47C412.95 513.62 412.76 513.84 412.48 514.11C412.2 514.38 411.69 514.84 410.93 515.47C410.18 516.1 409.34 516.67 408.44 517.17C407.53 517.67 406.39 518.13 405 518.53C403.62 518.93 402.19 519.13 400.73 519.13H400.65C394.81 519.13 390.09 517.21 386.49 513.35C382.89 509.5 381.09 504.83 381.09 499.34C381.09 496.92 381.49 494.57 382.3 492.28C383.1 489.99 384.29 487.9 385.85 486.01C387.41 484.12 389.49 482.61 392.08 481.48C394.67 480.35 397.58 479.78 400.8 479.78H400.95L400.97 479.79ZM400.97 486.58C397.45 486.58 394.55 487.81 392.29 490.28C390.03 492.75 388.89 495.79 388.89 499.42C388.89 503.05 390.02 506.09 392.29 508.56C394.56 511.03 397.45 512.26 400.97 512.26C404.49 512.26 407.44 511.03 409.8 508.56C412.17 506.1 413.35 503.06 413.35 499.46C413.35 495.86 412.17 492.82 409.8 490.32C407.43 487.83 404.49 486.58 400.97 486.58Z" fill="#02538E"/>
<path d="M453.06 479.79C458.95 479.79 463.69 481.62 467.29 485.26C470.89 488.91 472.69 493.63 472.69 499.42C472.69 505.21 471.05 509.69 467.78 513.46C464.51 517.24 460.13 519.12 454.64 519.12C448.75 519.12 444.4 517.56 441.58 514.44L440.98 513.69V537.25H433.43V499.42C433.43 496.1 434 493.14 435.13 490.55C436.26 487.96 437.78 485.89 439.7 484.36C441.61 482.82 443.7 481.68 445.97 480.92C448.24 480.17 450.6 479.79 453.07 479.79H453.06ZM453.06 486.58C449.54 486.58 446.59 487.83 444.23 490.32C441.86 492.81 440.68 495.86 440.68 499.46C440.68 503.06 441.86 506.09 444.23 508.56C446.6 511.03 449.54 512.26 453.06 512.26C456.58 512.26 459.48 511.03 461.74 508.56C464 506.1 465.14 503.05 465.14 499.42C465.14 495.79 464.01 492.75 461.74 490.28C459.47 487.81 456.58 486.58 453.06 486.58Z" fill="#02538E"/>
<path d="M504.41 479.79C510.3 479.79 515.04 481.62 518.64 485.26C522.24 488.91 524.04 493.63 524.04 499.42C524.04 505.21 522.4 509.69 519.13 513.46C515.86 517.24 511.48 519.12 505.99 519.12C500.1 519.12 495.75 517.56 492.93 514.44L492.33 513.69V537.25H484.78V499.42C484.78 496.1 485.35 493.14 486.48 490.55C487.61 487.96 489.13 485.89 491.05 484.36C492.96 482.82 495.05 481.68 497.32 480.92C499.59 480.17 501.95 479.79 504.42 479.79H504.41ZM504.41 486.58C500.89 486.58 497.94 487.83 495.58 490.32C493.21 492.81 492.03 495.86 492.03 499.46C492.03 503.06 493.21 506.09 495.58 508.56C497.95 511.03 500.89 512.26 504.41 512.26C507.93 512.26 510.83 511.03 513.09 508.56C515.35 506.1 516.49 503.05 516.49 499.42C516.49 495.79 515.36 492.75 513.09 490.28C510.82 487.81 507.93 486.58 504.41 486.58Z" fill="#02538E"/>
<path d="M281.98 162H321.28V352.91C321.28 402.83 293.7 427.78 238.55 427.78H235.93C212.22 427.53 193.69 421.92 180.34 410.94C166.99 399.96 158.94 386.11 156.2 369.39L192.51 359.66C194.76 371.14 200 379.82 208.23 385.68C216.47 391.55 225.57 394.48 235.56 394.48C254.52 394.48 267 390.86 272.99 383.62C278.98 376.38 281.97 362.66 281.97 342.44V162.01L281.98 162Z" fill="#02538E"/>
<path d="M828.67 233.12C857.87 233.12 881.39 242.17 899.23 260.26C917.07 278.36 925.99 301.75 925.99 330.45C925.99 359.15 917.88 381.36 901.66 400.08C885.44 418.8 863.72 428.15 836.53 428.15C807.33 428.15 785.74 420.42 771.77 404.94L768.77 401.2V517.99H731.34V330.45C731.34 313.98 734.15 299.32 739.76 286.47C745.38 273.62 752.92 263.39 762.41 255.77C771.89 248.16 782.25 242.48 793.48 238.74C804.71 235 816.44 233.13 828.67 233.13V233.12ZM828.67 266.81C811.2 266.81 796.6 272.99 784.87 285.34C773.14 297.69 767.28 312.79 767.28 330.63C767.28 348.47 773.14 363.51 784.87 375.74C796.6 387.97 811.2 394.08 828.67 394.08C846.14 394.08 860.49 387.97 871.72 375.74C882.95 363.52 888.56 348.42 888.56 330.45C888.56 312.48 882.94 297.39 871.72 285.16C860.49 272.94 846.14 266.82 828.67 266.82V266.81Z" fill="#02538E"/>
<path d="M460.09 258.07C452.73 256.83 445.37 256.6 437.99 257.65C436.37 257.88 435.41 257.59 434.27 256.38C431.35 253.28 426.91 252.03 423.64 254.33C420.25 256.71 417.09 255.93 413.71 255.48C410.35 255.03 407.01 254.44 403.66 253.96C402.98 253.86 401.7 253.8 401.66 253.96C401.22 255.72 400.69 257.54 400.77 259.31C400.83 260.81 402.52 260.34 403.52 260.5C408.21 261.26 412.92 261.93 417.63 262.64C417.7 262.91 417.77 263.17 417.85 263.44C407.07 268.66 397.94 275.91 390.64 285.42C390.36 285.3 390.08 285.19 389.79 285.07C389.79 278.62 389.82 272.16 389.76 265.71C389.75 264.3 390.75 264.11 391.62 263.64C395.31 261.65 397.3 258.55 396.98 254.36C396.83 252.38 397.52 251.46 399.08 250.5C411.44 242.87 424.79 238.22 439.28 237.1C443.76 236.75 441.12 233.6 441.46 231.84C441.94 229.36 439.69 230.56 438.72 230.65C423.01 232.16 408.5 237.19 395.25 245.77C393.94 246.62 392.97 246.84 391.41 246.06C387.9 244.3 384.37 244.79 381.31 247.27C378.25 249.74 377 253.09 377.96 256.9C378.44 258.79 377.96 259.86 376.71 261.17C365.36 273.19 357.35 287.13 352.95 303.09C352.5 304.71 351.9 305.64 350.1 306.14C346.3 307.21 344.06 310 343.47 313.87C342.88 317.75 344.29 321.06 347.56 323.21C349.18 324.28 349.56 325.4 349.51 327.2C349.24 336.92 350.51 346.46 353.18 355.81C358.06 372.88 366.9 387.59 379.62 399.96C380.23 400.55 380.67 402.04 382.02 401.13C384.83 399.23 385.05 396.59 382.72 394.19C364.7 375.69 355.89 353.46 355.82 327.7C355.82 325.96 356.03 324.7 357.9 323.75C361.29 322.03 362.93 318.92 362.82 315.14C362.78 313.54 363.33 312.73 364.57 311.94C369.26 308.97 373.93 305.97 378.52 302.86C379.63 302.1 380.44 301.96 381.44 302.44C381.54 302.56 381.64 302.68 381.73 302.8C381.98 302.93 382.21 303.07 382.43 303.22C382.67 303.3 382.91 303.39 383.15 303.49C383.41 303.64 383.68 303.78 383.95 303.9C384.04 303.96 384.13 304.03 384.22 304.1C384.46 304.18 384.7 304.28 384.94 304.4C385.11 304.45 385.27 304.52 385.42 304.6C385.81 304.65 386.18 304.73 386.52 304.84C386.66 304.79 386.83 304.75 386.99 304.71C387.98 304.8 388.97 304.73 389.94 304.5C392.23 304.77 394.01 306.08 395.8 307.82C398.37 310.33 401.14 312.64 403.9 314.93C405.21 316.02 405.66 316.93 404.96 318.75C403.47 322.65 404.93 327.03 408.09 329.55C411.29 332.1 416.06 332.91 418.91 330.15C422.12 327.04 424.71 328.35 427.64 329.72C430.24 330.95 432.81 332.25 435.3 333.68C439.68 336.2 443.61 339.35 447.28 342.82C448.75 344.21 450.41 344.58 451.91 343.06C453.39 341.56 453.05 339.85 451.73 338.38C450.91 337.47 449.95 336.67 449.03 335.86C441.69 329.41 433.33 324.71 424.08 320.84C427.74 319.56 439.33 315.59 443 314.37C443.29 314.27 443.56 314.19 443.81 314.1C445.33 316.16 447.74 317.51 450.43 317.84C454.66 318.36 458.69 316.07 460.44 312.18C462.16 308.33 461.19 303.66 458.09 300.89C454.91 298.05 450.3 297.43 446.69 299.81C444.94 300.97 443.68 300.79 441.98 300.01C428.41 293.81 414.14 290.9 399.23 291.29C397.9 291.32 397.06 291.02 396.29 290.18C396.04 288.89 396.61 288.04 397.48 286.99C403.17 280.22 409.94 274.81 417.75 270.65C419.32 269.81 420.33 269.92 421.82 271.01C427.11 274.87 434.35 272.64 436.41 266.45C437.07 264.46 438.12 263.94 439.86 263.78C446.13 263.22 452.39 263.22 458.6 264.36C460.2 264.65 461.17 264.69 461.17 262.7C461.17 262.11 461.38 261.45 461.68 260.94C462.86 258.97 462.07 258.38 460.06 258.04L460.09 258.07ZM374.42 297.8C369.8 300.67 365.29 303.7 360.72 306.66C360.22 306.98 359.71 307.57 359.08 307.28C358.37 306.95 358.63 306.22 358.78 305.66C363.04 289.67 370.74 275.63 382.48 263.89C382.58 263.79 382.86 263.86 383.48 263.83C383.48 270.85 383.46 277.72 383.5 284.58C383.5 285.75 383.05 286.46 382.12 287.1C380.43 288.27 379 289.85 378.64 291.8C378.42 292.49 378.26 293.21 378.19 293.94C377.53 295.72 376.11 296.76 374.43 297.81L374.42 297.8ZM415.37 327.2C412.49 327.88 409.5 325.95 408.84 322.98C408.2 320.08 409.88 317.29 412.71 316.55C415.66 315.78 418.62 317.55 419.36 320.51C420.08 323.44 418.25 326.51 415.36 327.19L415.37 327.2ZM400.29 297.62C413.51 297.42 426.18 300 438.32 305.26C439.87 305.93 441 306.65 441.65 307.95C437.41 309.45 428.67 312.39 425.96 313.32C423.28 314.24 420.64 315.49 417.99 313.03C417.33 312.41 415.97 312.04 415.1 312.24C410.79 313.23 408.35 310.4 405.65 307.96C403.36 305.9 400.96 303.96 398.73 301.83C397.88 301.02 396.06 300.64 396.8 298.79C397.48 297.1 399.06 297.63 400.28 297.61L400.29 297.62Z" fill="#8DA0B1"/>
<path d="M522.56 255.03C520.11 251.54 515.76 249.88 511.71 251.39C509.74 252.12 508.56 251.66 507.08 250.51C495.28 241.39 482.05 235.3 467.43 232.29C465.83 231.96 465.07 231.32 464.45 229.79C462.36 224.58 457.35 222.56 451.6 224.38C447.65 225.62 444.8 230.9 446.01 235.51C446.5 237.39 445.91 238.28 444.77 239.45C441.15 243.14 437.62 246.93 434.08 250.66C434.81 251.22 435.91 251.75 436.57 252.62C438.08 254.6 439.14 254.09 440.62 252.52C443.5 249.45 446.6 246.58 449.58 243.61C450.48 242.72 451.3 242.51 452.72 242.54C456.52 242.62 458.52 244.71 460.35 247.59C462.28 250.62 464.45 253.49 466.62 256.36C467.65 257.72 467.88 258.7 466.78 260.33C464.44 263.79 464.87 268.39 467.37 271.56C469.91 274.77 474.36 276.65 477.77 274.61C481.61 272.31 483.83 274.17 486.36 276.18C488.61 277.96 490.82 279.82 492.92 281.78C496.62 285.23 499.72 289.19 502.51 293.41C503.62 295.1 505.16 295.84 506.97 294.7C508.75 293.58 508.81 291.84 507.86 290.1C507.27 289.02 506.52 288.03 505.8 287.03C500.12 279.08 493.05 272.6 484.92 266.73C488.77 266.32 492.62 265.85 496.47 265.51C500.84 265.11 500.67 265.16 500.74 260.8C500.77 258.62 499.91 258.5 498.23 258.72C494.97 259.14 491.7 259.47 488.43 259.8C485.61 260.09 482.76 260.7 480.74 257.7C480.23 256.95 479 256.28 478.1 256.27C473.67 256.25 471.94 252.94 469.87 249.95C468.11 247.42 466.21 244.99 464.53 242.41C463.89 241.43 462.2 240.64 463.34 239.01C464.39 237.52 465.81 238.4 467 238.66C479.92 241.47 491.67 246.87 502.3 254.76C504.24 256.2 505.34 257.49 505.02 260.23C504.52 264.6 507.26 268.34 511.26 269.8C515.26 271.27 519.71 269.96 522.29 266.56C524.84 263.2 524.96 258.43 522.57 255.03H522.56Z" fill="#8DA0B1"/>
<path d="M698.59 284.16C678.96 245.48 637.62 224.03 594.61 231.73C554.82 238.85 529.13 263.02 516.67 301.36C513.23 311.95 513.13 322.98 512.4 333.93C511.69 344.47 508.26 354.19 502.78 363.2C502.21 364.14 501.7 364.61 500.37 364.46C495.23 363.89 491.29 366.36 489.7 370.87C488.16 375.22 489.6 379.43 493.87 382.33C495.21 383.24 495.32 384 494.77 385.36C492.3 391.45 489.86 397.56 487.54 403.71C486.92 405.36 486.14 406.07 484.27 406.25C479.97 406.65 476.41 409.8 476.09 413.8C475.88 416.46 474.6 417.21 472.43 417.79C453.18 422.99 434.21 422.18 415.51 415.3C412.4 414.16 409.2 413.08 406.02 410.66C413.15 409.04 419.74 407.59 426.29 406C427.17 405.79 429.65 406.03 428.4 404.19C427.4 402.71 428.94 398.86 424.85 399.81C418.65 401.26 412.42 402.58 406.22 404.06C404.51 404.47 403.41 404.38 402.52 402.55C401.39 400.24 399.28 398.68 396.76 398.3C394.74 398 394.26 396.92 394.06 395.25C393.67 391.99 393.22 388.74 392.83 385.48C392.39 381.84 391.98 378.2 391.55 374.57C402.06 386.42 414.56 394.48 429.56 398.6C430.91 398.97 431.23 399.87 431.66 400.94C433.71 406.07 438.26 408.51 443.54 407.13C445.16 406.71 446.53 406.9 448.02 407.4C454.94 409.71 461.87 411.99 468.81 414.26C470.02 414.66 471.61 415.57 471.74 413.26C471.83 411.54 474.74 409.27 470.88 408.1C466.26 406.7 461.68 405.16 457.09 403.66C455.05 403 453.03 402.29 450.78 401.52C451.86 400.5 452.72 400.7 453.51 400.63C466.54 399.61 478.31 395.19 488.92 387.62C489.63 387.11 491.05 386.59 490.55 385.71C489.71 384.24 488.42 382.95 487.09 381.85C486 380.95 485.23 382.31 484.48 382.83C475.19 389.38 464.85 393.02 453.6 394.27C451.6 394.49 450.09 394.37 448.68 392.3C445.16 387.09 438.48 386.58 434.01 391.02C432.59 392.43 431.39 392.5 429.66 392C415.01 387.71 403.36 379.25 394.35 366.99C393.11 365.31 393.18 364.2 394.34 362.43C398.46 356.12 394.67 348.14 387.25 347.5C385.04 347.31 384.56 346.19 384.15 344.49C381.46 333.26 381.63 322.06 384.85 310.99C385.97 307.13 382.53 308.13 381.13 307.17C379.17 305.83 379.04 308 378.73 309.11C376.97 315.37 375.99 321.73 375.96 328.26C375.94 333.13 376.48 337.95 377.18 342.85C376.07 342.64 375.81 341.9 375.41 341.33C372.17 336.82 368.68 332.47 365.81 327.74C363.8 324.42 362.33 325.84 360.13 327.23C357.08 329.16 359.79 330.43 360.58 331.57C365.44 338.58 370.46 345.47 375.47 352.38C376.34 353.59 376.85 354.76 376.75 356.34C376.47 360.66 378.34 363.94 382.2 365.89C383.58 366.59 384.08 367.41 384.26 368.91C385.14 376.25 386.22 383.56 387.1 390.89C387.64 395.36 388.77 399.71 385.49 404.06C383.24 407.05 384.66 411.87 387.38 414.53C390.4 417.49 394.06 418.23 397.89 416.64C399.83 415.84 401.28 415.93 403.07 416.83C426.54 428.63 450.92 430.68 476.1 423.37C477.5 422.96 478.54 423.03 479.8 423.86C484.04 426.65 488.56 426.28 491.97 423.06C495.42 419.81 496.09 415.03 493.46 410.67C492.6 409.24 492.59 408.14 493.19 406.68C495.81 400.21 498.35 393.7 500.88 387.19C501.74 384.98 502.58 382.89 504.91 381.64C506.44 380.81 507.46 379.19 507.94 377.49C508.39 375.92 509.4 375.17 510.76 374.51C515.57 372.19 520.22 369.46 525.18 367.52C529.39 365.88 526.72 363.92 526.03 361.96C524.93 358.84 523.31 361.38 522.23 361.84C517.43 363.86 512.98 366.67 508.07 368.48C507.74 367.22 508.72 366.43 509.25 365.52C513.09 358.89 515.92 351.88 517.53 344.38C518.11 341.68 518.35 338.89 519.09 336.23C520.41 331.47 524.34 328.8 529.27 328.99C533.84 329.17 537.43 332.37 538.49 337.08C539.08 339.69 538.22 342.16 537.98 344.7C537.82 346.4 537.1 347.29 535.39 347.98C529.78 350.25 527.27 356.93 530.55 361.74C532.31 364.33 531.72 366.12 530.62 368.41C523.26 383.65 512.66 396.09 498.67 405.64C497.94 406.14 496.52 406.55 496.74 407.39C497.17 409.03 497.85 410.81 498.99 412C500.02 413.09 501.2 411.59 502.13 410.95C517.82 400.29 529.51 386.25 537.3 368.96C537.82 367.81 538.19 366.79 539.79 366.68C543.91 366.39 546.69 364.07 548.04 360.28C549.55 356.06 548.36 352.34 545 349.46C543.82 348.44 543.9 347.48 544.13 346.2C545.12 340.73 545.67 335.22 545.7 329.66C545.74 320.93 547.43 312.53 550.67 304.42C563.96 271.15 601.33 254.88 634.69 267.87C663.53 279.1 680.5 309.59 675.13 340.51C669.8 371.22 642.43 394.34 611.28 394.41C594.75 394.45 580.29 388.92 567.86 378.06C564.37 375.01 560.33 373.38 555.72 373.77C548.27 374.4 543.28 378.52 541.08 385.55C540.13 388.6 539.98 391.48 540.58 394.16L541.86 517.98H579.29L578.3 422.13C597.58 429.23 618.26 429.64 640.22 423.07C680 411.17 706.64 374.65 708.75 335.81C709.73 317.62 706.79 300.37 698.56 284.15L698.59 284.16ZM507.93 368.7C507.93 368.7 507.82 368.7 507.76 368.69C507.84 368.65 507.92 368.62 508 368.58C507.98 368.62 507.96 368.67 507.93 368.7Z" fill="#02538E"/>
</svg>
