<svg width="248" height="186" viewBox="0 0 248 186" fill="none" xmlns="http://www.w3.org/2000/svg">
<g opacity="0.2">
<mask id="mask0_3056_16726" style="mask-type:alpha" maskUnits="userSpaceOnUse" x="0" y="0" width="248" height="186">
<path opacity="0.48" fill-rule="evenodd" clip-rule="evenodd" d="M0 102.703C0 124.123 7.72178 143.641 20.4285 158.393C35.0059 175.321 56.1447 185.964 79.7076 186C90.0054 186.015 99.8521 183.992 108.897 180.298C113.573 178.387 118.807 178.606 123.337 180.87C128.65 183.522 134.599 185.009 140.881 185.009C143.476 185.009 146.018 184.753 148.476 184.268C155.493 182.888 161.878 179.624 167.122 174.999C170.418 172.092 174.639 170.63 178.953 170.635H179.026C193.28 170.635 206.521 166.124 217.514 158.393C227.341 151.49 235.367 142.016 240.714 130.893C245.376 121.2 248 110.25 248 98.6615C248 58.9141 217.117 26.6876 179.026 26.6876C175.143 26.6876 171.338 27.0298 167.627 27.6684C157.799 11.067 140.2 0 120.124 0C111.648 0 103.612 1.97247 96.4196 5.5083C89.5792 8.85997 83.4973 13.6226 78.5221 19.4267C61.6287 19.7077 46.0081 25.4665 33.2232 35.0772C13.0982 50.1969 0 74.8559 0 102.703Z" fill="url(#paint0_linear_3056_16726)"/>
</mask>
<g mask="url(#mask0_3056_16726)">
<rect width="248" height="186" fill="#02538E"/>
</g>
</g>
<defs>
<linearGradient id="paint0_linear_3056_16726" x1="124" y1="186" x2="220.575" y2="13.0292" gradientUnits="userSpaceOnUse">
<stop/>
<stop offset="1" stop-opacity="0.01"/>
</linearGradient>
</defs>
</svg>
